<?xml version="1.0" encoding="UTF-8" standalone="no"?>
<!DOCTYPE svg PUBLIC "-//W3C//DTD SVG 1.1//EN"
 "http://www.w3.org/Graphics/SVG/1.1/DTD/svg11.dtd">
<!-- Generated by graphviz version 7.0.6 (0)
 -->
<!-- Pages: 1 -->
<svg width="1542pt" height="440pt"
 viewBox="0.00 0.00 1542.00 440.00" xmlns="http://www.w3.org/2000/svg" xmlns:xlink="http://www.w3.org/1999/xlink">
<g id="graph0" class="graph" transform="scale(1 1) rotate(0) translate(4 436)">
<polygon fill="white" stroke="none" points="-4,4 -4,-436 1538,-436 1538,4 -4,4"/>
<g id="clust1" class="cluster">
<title>cluster_0</title>
<polygon fill="none" stroke="red" points="176,-349 176,-424 284,-424 284,-349 176,-349"/>
<text text-anchor="middle" x="230" y="-408.8" font-family="Times,serif" font-size="14.00">Upstream</text>
</g>
<g id="clust2" class="cluster">
<title>cluster_1</title>
<polygon fill="none" stroke="orange" points="292,-233 292,-424 825,-424 825,-233 292,-233"/>
<text text-anchor="middle" x="558.5" y="-408.8" font-family="Times,serif" font-size="14.00">Build environment</text>
</g>
<g id="clust3" class="cluster">
<title>cluster_2</title>
<polygon fill="none" stroke="orange" points="300,-241 300,-316 817,-316 817,-241 300,-241"/>
<text text-anchor="middle" x="558.5" y="-300.8" font-family="Times,serif" font-size="14.00">Build image</text>
</g>
<g id="clust4" class="cluster">
<title>cluster_3</title>
<polygon fill="none" stroke="blue" points="543,-141 543,-216 957,-216 957,-141 543,-141"/>
<text text-anchor="middle" x="750" y="-200.8" font-family="Times,serif" font-size="14.00">Intermediate images</text>
</g>
<g id="clust5" class="cluster">
<title>cluster_4</title>
<polygon fill="none" stroke="green" points="8,-8 8,-122 1016,-122 1016,-8 8,-8"/>
<text text-anchor="middle" x="512" y="-106.8" font-family="Times,serif" font-size="14.00">Initial installation image</text>
</g>
<g id="clust6" class="cluster">
<title>cluster_5</title>
<polygon fill="none" stroke="green" points="622,-16 622,-91 1008,-91 1008,-16 622,-16"/>
<text text-anchor="middle" x="815" y="-75.8" font-family="Times,serif" font-size="14.00">ESP Partition (512 MiB)</text>
</g>
<g id="clust7" class="cluster">
<title>cluster_6</title>
<polygon fill="none" stroke="green" points="1024,-16 1024,-91 1526,-91 1526,-16 1024,-16"/>
<text text-anchor="middle" x="1275" y="-75.8" font-family="Times,serif" font-size="14.00">RAUC update bundle</text>
</g>
<g id="clust8" class="cluster">
<title>cluster_7</title>
<polygon fill="none" stroke="violet" points="833,-241 833,-316 1178,-316 1178,-241 833,-241"/>
<text text-anchor="middle" x="1005.5" y="-300.8" font-family="Times,serif" font-size="14.00">Custom files</text>
</g>
<!-- install.img -->
<g id="node1" class="node">
<title>install.img</title>
<polygon fill="lightgrey" stroke="black" points="276,-393 188,-393 184,-389 184,-357 272,-357 276,-361 276,-393"/>
<polyline fill="none" stroke="black" points="272,-389 184,-389"/>
<polyline fill="none" stroke="black" points="272,-389 272,-357"/>
<polyline fill="none" stroke="black" points="272,-389 276,-393"/>
<text text-anchor="middle" x="230" y="-371.3" font-family="Times,serif" font-size="14.00">install.img</text>
</g>
<!-- / (2560 MiB) -->
<g id="node3" class="node">
<title>/ (2560 MiB)</title>
<polygon fill="lightgrey" stroke="black" points="414,-285 312,-285 308,-281 308,-249 410,-249 414,-253 414,-285"/>
<polyline fill="none" stroke="black" points="410,-281 308,-281"/>
<polyline fill="none" stroke="black" points="410,-281 410,-249"/>
<polyline fill="none" stroke="black" points="410,-281 414,-285"/>
<text text-anchor="middle" x="361" y="-263.3" font-family="Times,serif" font-size="14.00">/ (2560 MiB)</text>
</g>
<!-- install.img&#45;&gt;/ (2560 MiB) -->
<g id="edge1" class="edge">
<title>install.img&#45;&gt;/ (2560 MiB)</title>
<path fill="none" stroke="black" d="M251.34,-356.73C272.94,-339.25 306.53,-312.07 330.85,-292.4"/>
<polygon fill="black" stroke="black" points="332.92,-295.22 338.49,-286.21 328.52,-289.78 332.92,-295.22"/>
</g>
<!-- /boot (256 MiB) -->
<g id="node4" class="node">
<title>/boot (256 MiB)</title>
<polygon fill="lightgrey" stroke="black" points="729,-285 605,-285 601,-281 601,-249 725,-249 729,-253 729,-285"/>
<polyline fill="none" stroke="black" points="725,-281 601,-281"/>
<polyline fill="none" stroke="black" points="725,-281 725,-249"/>
<polyline fill="none" stroke="black" points="725,-281 729,-285"/>
<text text-anchor="middle" x="665" y="-263.3" font-family="Times,serif" font-size="14.00">/boot (256 MiB)</text>
</g>
<!-- install.img&#45;&gt;/boot (256 MiB) -->
<g id="edge3" class="edge">
<title>install.img&#45;&gt;/boot (256 MiB)</title>
<path fill="none" stroke="black" d="M262.43,-356.54C289.18,-342.14 322.79,-324.06 323,-324 380.77,-308.54 534.97,-334 592,-316 607.79,-311.02 623.39,-301.55 636.09,-292.34"/>
<polygon fill="black" stroke="black" points="638.14,-295.17 643.98,-286.34 633.91,-289.6 638.14,-295.17"/>
</g>
<!-- build_data.img -->
<g id="node2" class="node">
<title>build_data.img</title>
<polygon fill="lightgrey" stroke="black" points="422,-393 304,-393 300,-389 300,-357 418,-357 422,-361 422,-393"/>
<polyline fill="none" stroke="black" points="418,-389 300,-389"/>
<polyline fill="none" stroke="black" points="418,-389 418,-357"/>
<polyline fill="none" stroke="black" points="418,-389 422,-393"/>
<text text-anchor="middle" x="361" y="-371.3" font-family="Times,serif" font-size="14.00">build_data.img</text>
</g>
<!-- build_data.img&#45;&gt;build_data.img -->
<g id="edge5" class="edge">
<title>build_data.img&#45;&gt;build_data.img</title>
<path fill="none" stroke="black" d="M422.28,-382.61C432.75,-381.57 440,-379.04 440,-375 440,-372.67 437.58,-370.83 433.51,-369.5"/>
<polygon fill="black" stroke="black" points="434.24,-366.08 423.77,-367.67 432.94,-372.96 434.24,-366.08"/>
<text text-anchor="middle" x="567" y="-371.3" font-family="Times,serif" font-size="14.00">build custom packages (e.g. u&#45;boot)</text>
</g>
<!-- build_data.img&#45;&gt;/ (2560 MiB) -->
<g id="edge6" class="edge">
<title>build_data.img&#45;&gt;/ (2560 MiB)</title>
<path fill="none" stroke="black" d="M361,-356.97C361,-340.76 361,-316.06 361,-296.79"/>
<polygon fill="black" stroke="black" points="364.5,-296.85 361,-286.85 357.5,-296.85 364.5,-296.85"/>
<text text-anchor="middle" x="492" y="-327.8" font-family="Times,serif" font-size="14.00">install custom packages (e.g. u&#45;boot)</text>
</g>
<!-- / (2560 MiB)&#45;&gt;/ (2560 MiB) -->
<g id="edge2" class="edge">
<title>/ (2560 MiB)&#45;&gt;/ (2560 MiB)</title>
<path fill="none" stroke="black" d="M414.26,-274.61C424.63,-273.73 432,-271.19 432,-267 432,-264.58 429.54,-262.71 425.46,-261.39"/>
<polygon fill="black" stroke="black" points="426.21,-257.97 415.75,-259.65 424.97,-264.86 426.21,-257.97"/>
<text text-anchor="middle" x="507.5" y="-263.3" font-family="Times,serif" font-size="14.00">update and provision</text>
</g>
<!-- root.ext4.img (2560 MiB) -->
<g id="node5" class="node">
<title>root.ext4.img (2560 MiB)</title>
<polygon fill="lightgrey" stroke="black" points="749,-185 555,-185 551,-181 551,-149 745,-149 749,-153 749,-185"/>
<polyline fill="none" stroke="black" points="745,-181 551,-181"/>
<polyline fill="none" stroke="black" points="745,-181 745,-149"/>
<polyline fill="none" stroke="black" points="745,-181 749,-185"/>
<text text-anchor="middle" x="650" y="-163.3" font-family="Times,serif" font-size="14.00">root.ext4.img (2560 MiB)</text>
</g>
<!-- / (2560 MiB)&#45;&gt;root.ext4.img (2560 MiB) -->
<g id="edge8" class="edge">
<title>/ (2560 MiB)&#45;&gt;root.ext4.img (2560 MiB)</title>
<path fill="none" stroke="black" d="M412.33,-248.59C461.4,-231.96 535.44,-206.85 587.83,-189.08"/>
<polygon fill="black" stroke="black" points="588.88,-192.42 597.22,-185.9 586.63,-185.79 588.88,-192.42"/>
</g>
<!-- /boot (256 MiB)&#45;&gt;/boot (256 MiB) -->
<g id="edge4" class="edge">
<title>/boot (256 MiB)&#45;&gt;/boot (256 MiB)</title>
<path fill="none" stroke="black" d="M729.29,-274.37C739.79,-273.32 747,-270.86 747,-267 747,-264.77 744.59,-263.01 740.53,-261.71"/>
<polygon fill="black" stroke="black" points="741.25,-258.29 730.78,-259.9 739.97,-265.17 741.25,-258.29"/>
<text text-anchor="middle" x="778" y="-263.3" font-family="Times,serif" font-size="14.00">EFI boot</text>
</g>
<!-- esp.vfat.img (256 MiB) -->
<g id="node6" class="node">
<title>esp.vfat.img (256 MiB)</title>
<polygon fill="lightgrey" stroke="black" points="948.5,-185 771.5,-185 767.5,-181 767.5,-149 944.5,-149 948.5,-153 948.5,-185"/>
<polyline fill="none" stroke="black" points="944.5,-181 767.5,-181"/>
<polyline fill="none" stroke="black" points="944.5,-181 944.5,-149"/>
<polyline fill="none" stroke="black" points="944.5,-181 948.5,-185"/>
<text text-anchor="middle" x="858" y="-163.3" font-family="Times,serif" font-size="14.00">esp.vfat.img (256 MiB)</text>
</g>
<!-- /boot (256 MiB)&#45;&gt;esp.vfat.img (256 MiB) -->
<g id="edge7" class="edge">
<title>/boot (256 MiB)&#45;&gt;esp.vfat.img (256 MiB)</title>
<path fill="none" stroke="black" d="M699.06,-248.71C730.97,-232.5 778.85,-208.19 813.71,-190.49"/>
<polygon fill="black" stroke="black" points="814.95,-193.79 822.28,-186.14 811.78,-187.54 814.95,-193.79"/>
</g>
<!-- /dev/sda3 Root partition B (2560 MiB) -->
<g id="node7" class="node">
<title>/dev/sda3 Root partition B (2560 MiB)</title>
<polygon fill="lightgrey" stroke="black" points="305.5,-60 20.5,-60 16.5,-56 16.5,-24 301.5,-24 305.5,-28 305.5,-60"/>
<polyline fill="none" stroke="black" points="301.5,-56 16.5,-56"/>
<polyline fill="none" stroke="black" points="301.5,-56 301.5,-24"/>
<polyline fill="none" stroke="black" points="301.5,-56 305.5,-60"/>
<text text-anchor="middle" x="161" y="-38.3" font-family="Times,serif" font-size="14.00">/dev/sda3 Root partition B (2560 MiB)</text>
</g>
<!-- root.ext4.img (2560 MiB)&#45;&gt;/dev/sda3 Root partition B (2560 MiB) -->
<g id="edge14" class="edge">
<title>root.ext4.img (2560 MiB)&#45;&gt;/dev/sda3 Root partition B (2560 MiB)</title>
<path fill="none" stroke="black" d="M550.61,-161.88C482.93,-156.92 392,-146.01 315,-122 272.6,-108.78 227.83,-84.49 197.56,-66.32"/>
<polygon fill="black" stroke="black" points="199.53,-63.42 189.16,-61.21 195.88,-69.4 199.53,-63.42"/>
</g>
<!-- /dev/sda2 Root partition A (2560 MiB) -->
<g id="node8" class="node">
<title>/dev/sda2 Root partition A (2560 MiB)</title>
<polygon fill="lightgrey" stroke="black" points="612,-60 328,-60 324,-56 324,-24 608,-24 612,-28 612,-60"/>
<polyline fill="none" stroke="black" points="608,-56 324,-56"/>
<polyline fill="none" stroke="black" points="608,-56 608,-24"/>
<polyline fill="none" stroke="black" points="608,-56 612,-60"/>
<text text-anchor="middle" x="468" y="-38.3" font-family="Times,serif" font-size="14.00">/dev/sda2 Root partition A (2560 MiB)</text>
</g>
<!-- root.ext4.img (2560 MiB)&#45;&gt;/dev/sda2 Root partition A (2560 MiB) -->
<g id="edge13" class="edge">
<title>root.ext4.img (2560 MiB)&#45;&gt;/dev/sda2 Root partition A (2560 MiB)</title>
<path fill="none" stroke="black" d="M624.31,-148.64C592.69,-127.27 538.85,-90.88 503.35,-66.89"/>
<polygon fill="black" stroke="black" points="505.35,-64.02 495.11,-61.32 501.43,-69.82 505.35,-64.02"/>
</g>
<!-- slot.rootfs (2560 MiB) -->
<g id="node12" class="node">
<title>slot.rootfs (2560 MiB)</title>
<polygon fill="lightgrey" stroke="black" points="1206,-60 1036,-60 1032,-56 1032,-24 1202,-24 1206,-28 1206,-60"/>
<polyline fill="none" stroke="black" points="1202,-56 1032,-56"/>
<polyline fill="none" stroke="black" points="1202,-56 1202,-24"/>
<polyline fill="none" stroke="black" points="1202,-56 1206,-60"/>
<text text-anchor="middle" x="1119" y="-38.3" font-family="Times,serif" font-size="14.00">slot.rootfs (2560 MiB)</text>
</g>
<!-- root.ext4.img (2560 MiB)&#45;&gt;slot.rootfs (2560 MiB) -->
<g id="edge16" class="edge">
<title>root.ext4.img (2560 MiB)&#45;&gt;slot.rootfs (2560 MiB)</title>
<path fill="none" stroke="black" d="M718.89,-148.55C732.14,-145.67 745.95,-142.98 759,-141 870.49,-124.13 906.29,-161.24 1012,-122 1043.3,-110.38 1073.38,-86.68 1093.63,-68.26"/>
<polygon fill="black" stroke="black" points="1095.93,-70.9 1100.84,-61.51 1091.15,-65.79 1095.93,-70.9"/>
</g>
<!-- /dev/sda1 A (256 MiB) -->
<g id="node9" class="node">
<title>/dev/sda1 A (256 MiB)</title>
<polygon fill="lightgrey" stroke="black" points="999.5,-60 828.5,-60 824.5,-56 824.5,-24 995.5,-24 999.5,-28 999.5,-60"/>
<polyline fill="none" stroke="black" points="995.5,-56 824.5,-56"/>
<polyline fill="none" stroke="black" points="995.5,-56 995.5,-24"/>
<polyline fill="none" stroke="black" points="995.5,-56 999.5,-60"/>
<text text-anchor="middle" x="912" y="-38.3" font-family="Times,serif" font-size="14.00">/dev/sda1 A (256 MiB)</text>
</g>
<!-- esp.vfat.img (256 MiB)&#45;&gt;/dev/sda1 A (256 MiB) -->
<g id="edge11" class="edge">
<title>esp.vfat.img (256 MiB)&#45;&gt;/dev/sda1 A (256 MiB)</title>
<path fill="none" stroke="black" d="M865.62,-148.64C874.51,-128.4 889.31,-94.69 899.8,-70.79"/>
<polygon fill="black" stroke="black" points="902.99,-72.22 903.81,-61.66 896.58,-69.41 902.99,-72.22"/>
</g>
<!-- /dev/sda1 B (256 MiB) -->
<g id="node10" class="node">
<title>/dev/sda1 B (256 MiB)</title>
<polygon fill="lightgrey" stroke="black" points="806,-60 634,-60 630,-56 630,-24 802,-24 806,-28 806,-60"/>
<polyline fill="none" stroke="black" points="802,-56 630,-56"/>
<polyline fill="none" stroke="black" points="802,-56 802,-24"/>
<polyline fill="none" stroke="black" points="802,-56 806,-60"/>
<text text-anchor="middle" x="718" y="-38.3" font-family="Times,serif" font-size="14.00">/dev/sda1 B (256 MiB)</text>
</g>
<!-- esp.vfat.img (256 MiB)&#45;&gt;/dev/sda1 B (256 MiB) -->
<g id="edge12" class="edge">
<title>esp.vfat.img (256 MiB)&#45;&gt;/dev/sda1 B (256 MiB)</title>
<path fill="none" stroke="black" d="M838.24,-148.64C814.16,-127.49 773.33,-91.61 746.01,-67.61"/>
<polygon fill="black" stroke="black" points="748.62,-65.24 738.8,-61.27 744,-70.5 748.62,-65.24"/>
</g>
<!-- slot.esp (256 MiB) -->
<g id="node13" class="node">
<title>slot.esp (256 MiB)</title>
<polygon fill="lightgrey" stroke="black" points="1372,-60 1228,-60 1224,-56 1224,-24 1368,-24 1372,-28 1372,-60"/>
<polyline fill="none" stroke="black" points="1368,-56 1224,-56"/>
<polyline fill="none" stroke="black" points="1368,-56 1368,-24"/>
<polyline fill="none" stroke="black" points="1368,-56 1372,-60"/>
<text text-anchor="middle" x="1298" y="-38.3" font-family="Times,serif" font-size="14.00">slot.esp (256 MiB)</text>
</g>
<!-- esp.vfat.img (256 MiB)&#45;&gt;slot.esp (256 MiB) -->
<g id="edge15" class="edge">
<title>esp.vfat.img (256 MiB)&#45;&gt;slot.esp (256 MiB)</title>
<path fill="none" stroke="black" d="M948.97,-161.28C1038.86,-155.46 1169.34,-143.59 1215,-122 1240.42,-109.98 1263.08,-87.15 1278.27,-69.11"/>
<polygon fill="black" stroke="black" points="1280.97,-71.34 1284.55,-61.37 1275.53,-66.92 1280.97,-71.34"/>
</g>
<!-- manifest.raucm -->
<g id="node11" class="node">
<title>manifest.raucm</title>
<polygon fill="lightgrey" stroke="black" points="1512,-60 1390,-60 1390,-24 1518,-24 1518,-54 1512,-60"/>
<polyline fill="none" stroke="black" points="1512,-60 1512,-54"/>
<polyline fill="none" stroke="black" points="1518,-54 1512,-54"/>
<text text-anchor="middle" x="1454" y="-38.3" font-family="Times,serif" font-size="14.00">manifest.raucm</text>
</g>
<!-- RAUC system.conf -->
<g id="node14" class="node">
<title>RAUC system.conf</title>
<polygon fill="lightgrey" stroke="black" points="990.5,-285 845.5,-285 841.5,-281 841.5,-249 986.5,-249 990.5,-253 990.5,-285"/>
<polyline fill="none" stroke="black" points="986.5,-281 841.5,-281"/>
<polyline fill="none" stroke="black" points="986.5,-281 986.5,-249"/>
<polyline fill="none" stroke="black" points="986.5,-281 990.5,-285"/>
<text text-anchor="middle" x="916" y="-263.3" font-family="Times,serif" font-size="14.00">RAUC system.conf</text>
</g>
<!-- RAUC system.conf&#45;&gt;root.ext4.img (2560 MiB) -->
<g id="edge9" class="edge">
<title>RAUC system.conf&#45;&gt;root.ext4.img (2560 MiB)</title>
<path fill="none" stroke="black" d="M867.88,-248.59C852.92,-243.36 836.34,-237.76 821,-233 793.71,-224.53 785.93,-225.56 759,-216 737.96,-208.53 715.27,-198.82 696.07,-190.09"/>
<polygon fill="black" stroke="black" points="697.72,-186.99 687.17,-185.99 694.79,-193.35 697.72,-186.99"/>
</g>
<!-- u&#45;boot fw_env.config -->
<g id="node15" class="node">
<title>u&#45;boot fw_env.config</title>
<polygon fill="lightgrey" stroke="black" points="1169.5,-285 1012.5,-285 1008.5,-281 1008.5,-249 1165.5,-249 1169.5,-253 1169.5,-285"/>
<polyline fill="none" stroke="black" points="1165.5,-281 1008.5,-281"/>
<polyline fill="none" stroke="black" points="1165.5,-281 1165.5,-249"/>
<polyline fill="none" stroke="black" points="1165.5,-281 1169.5,-285"/>
<text text-anchor="middle" x="1089" y="-263.3" font-family="Times,serif" font-size="14.00">u&#45;boot fw_env.config</text>
</g>
<!-- u&#45;boot fw_env.config&#45;&gt;root.ext4.img (2560 MiB) -->
<g id="edge10" class="edge">
<title>u&#45;boot fw_env.config&#45;&gt;root.ext4.img (2560 MiB)</title>
<path fill="none" stroke="black" d="M1049.41,-248.57C1034.24,-242.63 1016.59,-236.58 1000,-233 947.52,-221.66 811.12,-228.9 759,-216 735.86,-210.27 711.46,-199.97 691.62,-190.37"/>
<polygon fill="black" stroke="black" points="693.27,-187.29 682.76,-185.97 690.16,-193.56 693.27,-187.29"/>
</g>
</g>
</svg>
